<?xml version="1.0" encoding="utf-8"?>
<!-- Generator: Adobe Illustrator 19.2.0, SVG Export Plug-In . SVG Version: 6.00 Build 0)  -->
<svg version="1.1" id="Layer_1" xmlns="http://www.w3.org/2000/svg" xmlns:xlink="http://www.w3.org/1999/xlink" x="0px" y="0px"
	 viewBox="0 0 16 16" enable-background="new 0 0 16 16" xml:space="preserve">
<path d="M8.03,12.69c-0.917,0-1.367-0.546-1.519-1.059H3.949V9.939L4.16,9.835C4.314,9.76,4.402,9.717,4.476,9.6
	c0.142-0.226,0.496-0.788,0.496-2.581c0-1.721,0.608-2.805,1.861-3.309C6.956,3.286,7.302,2.744,8.03,2.744s1.05,0.541,1.155,0.97
	c1.242,0.508,1.844,1.592,1.844,3.305c0,1.79,0.342,2.382,0.45,2.577c0.048,0.076,0.222,0.188,0.292,0.214l0.332,0.046l-0.05,0.321
	v1.455h-2.56c-0.055,0.196-0.157,0.439-0.365,0.646C8.856,12.553,8.479,12.69,8.03,12.69z M4.708,10.871h2.5l0.008,0.374
	c0.005,0.156,0.081,0.683,0.814,0.683c0.691,0,0.753-0.521,0.758-0.679l0.007-0.374l2.497-0.004v-0.452
	c-0.176-0.104-0.364-0.257-0.465-0.431c-0.159-0.278-0.559-0.978-0.559-2.97c0-1.9-0.826-2.421-1.546-2.662L8.478,4.273L8.467,4.016
	C8.459,3.898,8.402,3.505,8.03,3.505c-0.419,0-0.5,0.515-0.502,0.536L7.504,4.278L7.28,4.356C6.558,4.598,5.732,5.119,5.732,7.019
	c0,2.013-0.438,2.71-0.602,2.973c-0.133,0.211-0.288,0.335-0.422,0.417V10.871z"/>
</svg>
